<svg version="1.1" xmlns="http://www.w3.org/2000/svg" viewBox="0 0 1000 1000">
  <path d="M500,50 C251.5,50 50,251.5 50,500 C50,748.5 251.5,950 500,950 C748.5,950 950,748.5 950,500 C950,251.5 748.5,50 500,50 Z M500,100 C720.9,100 900,279.1 900,500 C900,720.9 720.9,900 500,900 C279.1,900 100,720.9 100,500 C100,279.1 279.1,100 500,100 Z" fill="black"/>
  <circle cx="500" cy="500" r="150" fill="none" stroke="black" stroke-width="50"/>
  <rect x="475" y="150" width="50" height="150" fill="black"/>
  <rect x="475" y="700" width="50" height="150" fill="black"/>
  <rect x="150" y="475" width="150" height="50" fill="black"/>
  <rect x="700" y="475" width="150" height="50" fill="black"/>
</svg>